HIERARCHY
ROOT Hips
{
  OFFSET 0.0000 0.0000 0.0000
  CHANNELS 6 Xposition Yposition Zposition Zrotation Xrotation Yrotation
  JOINT Spine
  {
    OFFSET 0.0000 10.0000 0.0000
    CHANNELS 3 Zrotation Xrotation Yrotation
    JOINT Spine1
    {
      OFFSET 0.0000 10.0000 0.0000
      CHANNELS 3 Zrotation Xrotation Yrotation
      JOINT Spine2
      {
        OFFSET 0.0000 10.0000 0.0000
        CHANNELS 3 Zrotation Xrotation Yrotation
        JOINT Neck
        {
          OFFSET 0.0000 10.0000 0.0000
          CHANNELS 3 Zrotation Xrotation Yrotation
          JOINT Head
          {
            OFFSET 0.0000 10.0000 0.0000
            CHANNELS 3 Zrotation Xrotation Yrotation
            End Site
            {
              OFFSET 0.0000 10.0000 0.0000
            }
          }
        }
        JOINT LeftShoulder
        {
          OFFSET 5.0000 5.0000 0.0000
          CHANNELS 3 Zrotation Xrotation Yrotation
          JOINT LeftArm
          {
            OFFSET 10.0000 0.0000 0.0000
            CHANNELS 3 Zrotation Xrotation Yrotation
            JOINT LeftForeArm
            {
              OFFSET 20.0000 0.0000 0.0000
              CHANNELS 3 Zrotation Xrotation Yrotation
              JOINT LeftHand
              {
                OFFSET 20.0000 0.0000 0.0000
                CHANNELS 3 Zrotation Xrotation Yrotation
                End Site
                {
                  OFFSET 10.0000 0.0000 0.0000
                }
              }
            }
          }
        }
        JOINT RightShoulder
        {
          OFFSET -5.0000 5.0000 0.0000
          CHANNELS 3 Zrotation Xrotation Yrotation
          JOINT RightArm
          {
            OFFSET -10.0000 0.0000 0.0000
            CHANNELS 3 Zrotation Xrotation Yrotation
            JOINT RightForeArm
            {
              OFFSET -20.0000 0.0000 0.0000
              CHANNELS 3 Zrotation Xrotation Yrotation
              JOINT RightHand
              {
                OFFSET -20.0000 0.0000 0.0000
                CHANNELS 3 Zrotation Xrotation Yrotation
                End Site
                {
                  OFFSET -10.0000 0.0000 0.0000
                }
              }
            }
          }
        }
      }
    }
  }
  JOINT LeftUpLeg
  {
    OFFSET 10.0000 0.0000 0.0000
    CHANNELS 3 Zrotation Xrotation Yrotation
    JOINT LeftLeg
    {
      OFFSET 0.0000 -40.0000 0.0000
      CHANNELS 3 Zrotation Xrotation Yrotation
      JOINT LeftFoot
      {
        OFFSET 0.0000 -40.0000 0.0000
        CHANNELS 3 Zrotation Xrotation Yrotation
        JOINT LeftToeBase
        {
          OFFSET 0.0000 -5.0000 10.0000
          CHANNELS 3 Zrotation Xrotation Yrotation
          End Site
          {
            OFFSET 0.0000 0.0000 5.0000
          }
        }
      }
    }
  }
  JOINT RightUpLeg
  {
    OFFSET -10.0000 0.0000 0.0000
    CHANNELS 3 Zrotation Xrotation Yrotation
    JOINT RightLeg
    {
      OFFSET 0.0000 -40.0000 0.0000
      CHANNELS 3 Zrotation Xrotation Yrotation
      JOINT RightFoot
      {
        OFFSET 0.0000 -40.0000 0.0000
        CHANNELS 3 Zrotation Xrotation Yrotation
        JOINT RightToeBase
        {
          OFFSET 0.0000 -5.0000 10.0000
          CHANNELS 3 Zrotation Xrotation Yrotation
          End Site
          {
            OFFSET 0.0000 0.0000 5.0000
          }
        }
      }
    }
  }
}
MOTION
Frames: 16
Frame Time: 0.033333
0.0000 100.0000 0.0000 0.0000 0.0000 0.0000 0.0000 0.0000 0.0000 0.0000 0.0000 0.0000 -0.0000 0.0000 0.0000 0.0000 0.0000 0.0000 0.0000 0.0000 0.0000 0.0000 0.0000 0.0000 0.0000 0.0000 110.0000 0.0000 30.0000 0.0000 0.0000 0.0000 0.0000 0.0000 0.0000 0.0000 0.0000 0.0000 -110.0000 0.0000 30.0000 0.0000 0.0000 0.0000 0.0000 0.0000 0.0000 0.0000 0.0000 0.0000 0.0000 0.0000 0.0000 0.0000 0.0000 0.0000 0.0000 0.0000 -0.0000 0.0000 0.0000 0.0000 0.0000 0.0000 0.0000 0.0000 0.0000 0.0000 0.0000
0.0000 100.0000 0.0000 2.4949 0.0000 0.0000 1.2475 0.0000 0.0000 0.0000 0.0000 0.0000 -0.7485 0.0000 0.0000 0.0000 0.0000 0.0000 0.0000 3.2539 0.0000 0.0000 0.0000 0.0000 0.0000 0.0000 109.3444 0.0000 30.0000 0.0000 0.0000 0.0000 0.0000 0.0000 0.0000 0.0000 0.0000 0.0000 -109.3444 0.0000 30.0000 0.0000 0.0000 0.0000 0.0000 0.0000 2.0791 0.0000 0.0000 0.0000 0.0000 0.0000 0.0000 0.0000 0.0000 0.0000 0.0000 0.0000 -2.0791 0.0000 0.0000 0.0000 0.0000 0.0000 0.0000 0.0000 0.0000 0.0000 0.0000
0.0000 100.0000 0.0000 4.8808 0.0000 0.0000 2.4404 0.0000 0.0000 0.0000 0.0000 0.0000 -1.4643 0.0000 0.0000 0.0000 0.0000 0.0000 0.0000 5.9452 0.0000 0.0000 0.0000 0.0000 0.0000 0.0000 107.4064 0.0000 30.0000 0.0000 0.0000 0.0000 0.0000 0.0000 0.0000 0.0000 0.0000 0.0000 -107.4064 0.0000 30.0000 0.0000 0.0000 0.0000 0.0000 0.0000 4.0674 0.0000 0.0000 0.0000 0.0000 0.0000 0.0000 0.0000 0.0000 0.0000 0.0000 0.0000 -4.0674 0.0000 0.0000 0.0000 0.0000 0.0000 0.0000 0.0000 0.0000 0.0000 0.0000
0.0000 100.0000 0.0000 7.0534 0.0000 0.0000 3.5267 0.0000 0.0000 0.0000 0.0000 0.0000 -2.1160 0.0000 0.0000 0.0000 0.0000 0.0000 0.0000 7.6085 0.0000 0.0000 0.0000 0.0000 0.0000 0.0000 104.2705 0.0000 30.0000 0.0000 0.0000 0.0000 0.0000 0.0000 0.0000 0.0000 0.0000 0.0000 -104.2705 0.0000 30.0000 0.0000 0.0000 0.0000 0.0000 0.0000 5.8779 0.0000 0.0000 0.0000 0.0000 0.0000 0.0000 0.0000 0.0000 0.0000 0.0000 0.0000 -5.8779 0.0000 0.0000 0.0000 0.0000 0.0000 0.0000 0.0000 0.0000 0.0000 0.0000
0.0000 100.0000 0.0000 8.9177 0.0000 0.0000 4.4589 0.0000 0.0000 0.0000 0.0000 0.0000 -2.6753 0.0000 0.0000 0.0000 0.0000 0.0000 0.0000 7.9562 0.0000 0.0000 0.0000 0.0000 0.0000 0.0000 100.0739 0.0000 30.0000 0.0000 0.0000 0.0000 0.0000 0.0000 0.0000 0.0000 0.0000 0.0000 -100.0739 0.0000 30.0000 0.0000 0.0000 0.0000 0.0000 0.0000 7.4314 0.0000 0.0000 0.0000 0.0000 0.0000 0.0000 0.0000 0.0000 0.0000 0.0000 0.0000 -7.4314 0.0000 0.0000 0.0000 0.0000 0.0000 0.0000 0.0000 0.0000 0.0000 0.0000
0.0000 100.0000 0.0000 10.3923 0.0000 0.0000 5.1962 0.0000 0.0000 0.0000 0.0000 0.0000 -3.1177 0.0000 0.0000 0.0000 0.0000 0.0000 0.0000 6.9282 0.0000 0.0000 0.0000 0.0000 0.0000 0.0000 95.0000 0.0000 30.0000 0.0000 0.0000 0.0000 0.0000 0.0000 0.0000 0.0000 0.0000 0.0000 -95.0000 0.0000 30.0000 0.0000 0.0000 0.0000 0.0000 0.0000 8.6603 0.0000 0.0000 0.0000 0.0000 0.0000 0.0000 0.0000 0.0000 0.0000 0.0000 0.0000 -8.6603 0.0000 0.0000 0.0000 0.0000 0.0000 0.0000 0.0000 0.0000 0.0000 0.0000
0.0000 100.0000 0.0000 11.4127 0.0000 0.0000 5.7063 0.0000 0.0000 0.0000 0.0000 0.0000 -3.4238 0.0000 0.0000 0.0000 0.0000 0.0000 0.0000 4.7023 0.0000 0.0000 0.0000 0.0000 0.0000 0.0000 89.2705 0.0000 30.0000 0.0000 0.0000 0.0000 0.0000 0.0000 0.0000 0.0000 0.0000 0.0000 -89.2705 0.0000 30.0000 0.0000 0.0000 0.0000 0.0000 0.0000 9.5106 0.0000 0.0000 0.0000 0.0000 0.0000 0.0000 0.0000 0.0000 0.0000 0.0000 0.0000 -9.5106 0.0000 0.0000 0.0000 0.0000 0.0000 0.0000 0.0000 0.0000 0.0000 0.0000
0.0000 100.0000 0.0000 11.9343 0.0000 0.0000 5.9671 0.0000 0.0000 0.0000 0.0000 0.0000 -3.5803 0.0000 0.0000 0.0000 0.0000 0.0000 0.0000 1.6633 0.0000 0.0000 0.0000 0.0000 0.0000 0.0000 83.1359 0.0000 30.0000 0.0000 0.0000 0.0000 0.0000 0.0000 0.0000 0.0000 0.0000 0.0000 -83.1359 0.0000 30.0000 0.0000 0.0000 0.0000 0.0000 0.0000 9.9452 0.0000 0.0000 0.0000 0.0000 0.0000 0.0000 0.0000 0.0000 0.0000 0.0000 0.0000 -9.9452 0.0000 0.0000 0.0000 0.0000 0.0000 0.0000 0.0000 0.0000 0.0000 0.0000
0.0000 100.0000 0.0000 11.9343 0.0000 0.0000 5.9671 0.0000 0.0000 0.0000 0.0000 0.0000 -3.5803 0.0000 0.0000 0.0000 0.0000 0.0000 0.0000 -1.6633 0.0000 0.0000 0.0000 0.0000 0.0000 0.0000 76.8641 0.0000 30.0000 0.0000 0.0000 0.0000 0.0000 0.0000 0.0000 0.0000 0.0000 0.0000 -76.8641 0.0000 30.0000 0.0000 0.0000 0.0000 0.0000 0.0000 9.9452 0.0000 0.0000 0.0000 0.0000 0.0000 0.0000 0.0000 0.0000 0.0000 0.0000 0.0000 -9.9452 0.0000 0.0000 0.0000 0.0000 0.0000 0.0000 0.0000 0.0000 0.0000 0.0000
0.0000 100.0000 0.0000 11.4127 0.0000 0.0000 5.7063 0.0000 0.0000 0.0000 0.0000 0.0000 -3.4238 0.0000 0.0000 0.0000 0.0000 0.0000 0.0000 -4.7023 0.0000 0.0000 0.0000 0.0000 0.0000 0.0000 70.7295 0.0000 30.0000 0.0000 0.0000 0.0000 0.0000 0.0000 0.0000 0.0000 0.0000 0.0000 -70.7295 0.0000 30.0000 0.0000 0.0000 0.0000 0.0000 0.0000 9.5106 0.0000 0.0000 0.0000 0.0000 0.0000 0.0000 0.0000 0.0000 0.0000 0.0000 0.0000 -9.5106 0.0000 0.0000 0.0000 0.0000 0.0000 0.0000 0.0000 0.0000 0.0000 0.0000
0.0000 100.0000 0.0000 10.3923 0.0000 0.0000 5.1962 0.0000 0.0000 0.0000 0.0000 0.0000 -3.1177 0.0000 0.0000 0.0000 0.0000 0.0000 0.0000 -6.9282 0.0000 0.0000 0.0000 0.0000 0.0000 0.0000 65.0000 0.0000 30.0000 0.0000 0.0000 0.0000 0.0000 0.0000 0.0000 0.0000 0.0000 0.0000 -65.0000 0.0000 30.0000 0.0000 0.0000 0.0000 0.0000 0.0000 8.6603 0.0000 0.0000 0.0000 0.0000 0.0000 0.0000 0.0000 0.0000 0.0000 0.0000 0.0000 -8.6603 0.0000 0.0000 0.0000 0.0000 0.0000 0.0000 0.0000 0.0000 0.0000 0.0000
0.0000 100.0000 0.0000 8.9177 0.0000 0.0000 4.4589 0.0000 0.0000 0.0000 0.0000 0.0000 -2.6753 0.0000 0.0000 0.0000 0.0000 0.0000 0.0000 -7.9562 0.0000 0.0000 0.0000 0.0000 0.0000 0.0000 59.9261 0.0000 30.0000 0.0000 0.0000 0.0000 0.0000 0.0000 0.0000 0.0000 0.0000 0.0000 -59.9261 0.0000 30.0000 0.0000 0.0000 0.0000 0.0000 0.0000 7.4314 0.0000 0.0000 0.0000 0.0000 0.0000 0.0000 0.0000 0.0000 0.0000 0.0000 0.0000 -7.4314 0.0000 0.0000 0.0000 0.0000 0.0000 0.0000 0.0000 0.0000 0.0000 0.0000
0.0000 100.0000 0.0000 7.0534 0.0000 0.0000 3.5267 0.0000 0.0000 0.0000 0.0000 0.0000 -2.1160 0.0000 0.0000 0.0000 0.0000 0.0000 0.0000 -7.6085 0.0000 0.0000 0.0000 0.0000 0.0000 0.0000 55.7295 0.0000 30.0000 0.0000 0.0000 0.0000 0.0000 0.0000 0.0000 0.0000 0.0000 0.0000 -55.7295 0.0000 30.0000 0.0000 0.0000 0.0000 0.0000 0.0000 5.8779 0.0000 0.0000 0.0000 0.0000 0.0000 0.0000 0.0000 0.0000 0.0000 0.0000 0.0000 -5.8779 0.0000 0.0000 0.0000 0.0000 0.0000 0.0000 0.0000 0.0000 0.0000 0.0000
0.0000 100.0000 0.0000 4.8808 0.0000 0.0000 2.4404 0.0000 0.0000 0.0000 0.0000 0.0000 -1.4643 0.0000 0.0000 0.0000 0.0000 0.0000 0.0000 -5.9452 0.0000 0.0000 0.0000 0.0000 0.0000 0.0000 52.5936 0.0000 30.0000 0.0000 0.0000 0.0000 0.0000 0.0000 0.0000 0.0000 0.0000 0.0000 -52.5936 0.0000 30.0000 0.0000 0.0000 0.0000 0.0000 0.0000 4.0674 0.0000 0.0000 0.0000 0.0000 0.0000 0.0000 0.0000 0.0000 0.0000 0.0000 0.0000 -4.0674 0.0000 0.0000 0.0000 0.0000 0.0000 0.0000 0.0000 0.0000 0.0000 0.0000
0.0000 100.0000 0.0000 2.4949 0.0000 0.0000 1.2475 0.0000 0.0000 0.0000 0.0000 0.0000 -0.7485 0.0000 0.0000 0.0000 0.0000 0.0000 0.0000 -3.2539 0.0000 0.0000 0.0000 0.0000 0.0000 0.0000 50.6556 0.0000 30.0000 0.0000 0.0000 0.0000 0.0000 0.0000 0.0000 0.0000 0.0000 0.0000 -50.6556 0.0000 30.0000 0.0000 0.0000 0.0000 0.0000 0.0000 2.0791 0.0000 0.0000 0.0000 0.0000 0.0000 0.0000 0.0000 0.0000 0.0000 0.0000 0.0000 -2.0791 0.0000 0.0000 0.0000 0.0000 0.0000 0.0000 0.0000 0.0000 0.0000 0.0000
0.0000 100.0000 0.0000 0.0000 0.0000 0.0000 0.0000 0.0000 0.0000 0.0000 0.0000 0.0000 -0.0000 0.0000 0.0000 0.0000 0.0000 0.0000 0.0000 -0.0000 0.0000 0.0000 0.0000 0.0000 0.0000 0.0000 50.0000 0.0000 30.0000 0.0000 0.0000 0.0000 0.0000 0.0000 0.0000 0.0000 0.0000 0.0000 -50.0000 0.0000 30.0000 0.0000 0.0000 0.0000 0.0000 0.0000 0.0000 0.0000 0.0000 0.0000 0.0000 0.0000 0.0000 0.0000 0.0000 0.0000 0.0000 0.0000 -0.0000 0.0000 0.0000 0.0000 0.0000 0.0000 0.0000 0.0000 0.0000 0.0000 0.0000
